<svg width="9" height="20" viewBox="0 0 9 20" fill="none" xmlns="http://www.w3.org/2000/svg">
<path d="M7.85714 7V15.5714C7.85714 16.4807 7.49592 17.3528 6.85294 17.9958C6.20995 18.6388 5.33789 19 4.42857 19C3.51926 19 2.64719 18.6388 2.00421 17.9958C1.36122 17.3528 1 16.4807 1 15.5714V2.28571C1 1.94472 1.13546 1.6177 1.37658 1.37658C1.6177 1.13546 1.94472 1 2.28571 1H4.85714C5.19814 1 5.52516 1.13546 5.76628 1.37658C6.0074 1.6177 6.14286 1.94472 6.14286 2.28571V13.4286C6.14286 13.8832 5.96225 14.3193 5.64075 14.6408C5.31926 14.9622 4.88323 15.1429 4.42857 15.1429C3.97391 15.1429 3.53788 14.9622 3.21639 14.6408C2.8949 14.3193 2.71429 13.8832 2.71429 13.4286V7" stroke="#003CFF" stroke-width="2" stroke-linecap="round" stroke-linejoin="round"/>
</svg>
