<svg xmlns="http://www.w3.org/2000/svg" xmlns:xlink="http://www.w3.org/1999/xlink" width="200" height="156.713" viewBox="0 0 200 156.713"><defs><clipPath id="a"><path d="M0-575.753H200V-419.04H0Z" transform="translate(0 575.753)" fill="#003cff"/></clipPath></defs><g transform="translate(0 575.753)"><g transform="translate(0 -575.753)" clip-path="url(#a)"><g transform="translate(29.69 32.377)"><path d="M-175-57.97q5.756,0,11.8.585c20.707,2.013,37.565,7.052,48.752,14.572,7.788,5.235,12.787,11.682,14.508,18.566a28.364,28.364,0,0,0,.651-18.039C-101.8-50.9-108.131-58.631-118.1-65.279c-20.105-13.4-57-17.279-83.984-8.823-14.817,4.643-25.891,14.526-30.383,27.117A37.125,37.125,0,0,0-234.531-31.3a51.262,51.262,0,0,1,18.948-17.31C-204.376-54.795-190.51-57.97-175-57.97m-59.335,28.451a41.547,41.547,0,0,0,6.652,17.35C-220-.478-208.176,8.854-193.5,14.817a99.056,99.056,0,0,0,44.023,6.76c13.873-1.063,26.361-5.567,35.162-12.682,9.033-7.3,13.858-16.833,13.955-27.559q.008-.894-.06-1.783-.161.316-.329.631c-7.757,14.494-35.144,24.978-57.46,22A64.586,64.586,0,0,1-184.228-6.95a45.084,45.084,0,0,1-18.028-21.17.544.544,0,0,1,.3-.71.544.544,0,0,1,.71.3A44.02,44.02,0,0,0-183.643-7.868,63.5,63.5,0,0,0-158.07,1.1c10.4,1.39,22.626-.194,33.543-4.346s19.222-10.375,22.813-17.084q.563-1.052,1.038-2.121c-1.254-7.19-6.247-13.989-14.383-19.458-11.038-7.419-27.723-12.4-48.25-14.392-20.067-1.951-37.96,1.037-51.747,8.641-8.5,4.69-15.106,10.946-19.28,18.142m58.73,74.2a.529.529,0,0,1-.085-.007c-18.66-2.916-33.8-8.916-46.279-18.343a47.791,47.791,0,0,1-15.3-20.946c-3.342-8.723-4.08-17.814-2.077-25.6a38.942,38.942,0,0,1,3.9-9.571A38.077,38.077,0,0,1-233.5-47.35c4.608-12.916,15.937-23.045,31.083-27.79,27.267-8.544,64.565-4.61,84.913,8.956,10.192,6.794,16.668,14.732,19.25,23.594a29.522,29.522,0,0,1-1.3,20.28,22.028,22.028,0,0,1,.273,3.657c-.1,11.062-5.065,20.881-14.359,28.4-8.971,7.253-21.672,11.842-35.763,12.921a100.174,100.174,0,0,1-44.516-6.837c-14.877-6.046-26.87-15.52-34.681-27.4a42.711,42.711,0,0,1-6.587-16.416,37.572,37.572,0,0,0-3.107,8.049C-240.237-12.37-239.513-3.514-236.25,5a46.687,46.687,0,0,0,14.936,20.467C-208.98,34.783-194,40.716-175.523,43.6a.544.544,0,0,1,.454.622.544.544,0,0,1-.537.461" transform="translate(240.449 79.65)" fill="#003cff"/></g><g transform="translate(126.544 73.527)"><path d="M-25.763-24.607a.806.806,0,0,1-.088,0,.816.816,0,0,1-.725-.9c.132-1.229.122-3.928-.856-5.351a3.05,3.05,0,0,0-3.791-1.032,5.218,5.218,0,0,0-2.551,3.961.819.819,0,0,1-.929.686.816.816,0,0,1-.686-.929,6.781,6.781,0,0,1,3.463-5.193,4.7,4.7,0,0,1,5.839,1.58c1.536,2.232,1.18,6.025,1.135,6.451a.817.817,0,0,1-.811.73" transform="translate(35.398 33.809)" fill="#003cff"/></g><g transform="translate(103.791 71.877)"><path d="M-2.349-25.916a.817.817,0,0,1-.811-.727c-.051-.466-.447-4.62,1.477-6.985A5.947,5.947,0,0,1,5.252-35.07,7.562,7.562,0,0,1,9.38-29.346a.816.816,0,0,1-.679.934.817.817,0,0,1-.934-.678,5.916,5.916,0,0,0-3.194-4.5A4.331,4.331,0,0,0-.416-32.6c-1.225,1.5-1.268,4.435-1.12,5.774a.817.817,0,0,1-.722.9.781.781,0,0,1-.091.005" transform="translate(3.228 35.609)" fill="#003cff"/></g><g transform="translate(171.197 38.918)"><path d="M-12.63-27.7a7.921,7.921,0,0,1,5.636,5.636A7.92,7.92,0,0,1-1.357-27.7a7.92,7.92,0,0,1-5.636-5.636A7.921,7.921,0,0,1-12.63-27.7m5.636,10.359a.544.544,0,0,1-.544-.544c0-6.238-3.033-9.271-9.271-9.271a.545.545,0,0,1-.544-.544.545.545,0,0,1,.544-.544c6.238,0,9.271-3.032,9.271-9.271a.544.544,0,0,1,.544-.544.544.544,0,0,1,.544.544c0,6.238,3.032,9.271,9.271,9.271a.545.545,0,0,1,.544.544.545.545,0,0,1-.544.544c-6.238,0-9.271,3.032-9.271,9.271a.545.545,0,0,1-.544.544" transform="translate(17.353 38.06)" fill="#003cff"/></g><g transform="translate(185.385 62.85)"><path d="M-10.457-19.54a5.612,5.612,0,0,1,3.4,3.4,5.612,5.612,0,0,1,3.4-3.4,5.612,5.612,0,0,1-3.4-3.4,5.612,5.612,0,0,1-3.4,3.4m3.4,7.307a.544.544,0,0,1-.544-.544C-7.6-16.961-9.639-19-13.824-19a.544.544,0,0,1-.544-.544.544.544,0,0,1,.544-.544c4.185,0,6.219-2.034,6.219-6.219a.544.544,0,0,1,.544-.544.544.544,0,0,1,.544.544c0,4.185,2.034,6.219,6.219,6.219a.545.545,0,0,1,.544.544A.545.545,0,0,1-.3-19c-4.185,0-6.219,2.034-6.219,6.219a.544.544,0,0,1-.544.544" transform="translate(14.368 26.847)" fill="#003cff"/></g><g transform="translate(36.254 5.275)"><path d="M-14.582-37.731a10.859,10.859,0,0,1,5.406,2.818,10.862,10.862,0,0,1,2.818,5.407A11.513,11.513,0,0,1,2.3-38.163a10.863,10.863,0,0,1-5.406-2.818,10.862,10.862,0,0,1-2.819-5.407,11.513,11.513,0,0,1-8.657,8.657m8.114,13.679h-.014a.544.544,0,0,1-.531-.544s0-.009,0-.014c.1-4.275-.882-7.482-2.933-9.533s-5.259-3.038-9.533-2.933a.546.546,0,0,1-.558-.531v-.013a.544.544,0,0,1,.531-.544c8.635-.212,12.935-4.512,13.146-13.146a.542.542,0,0,1,.558-.531.545.545,0,0,1,.531.544s0,.009,0,.014c-.1,4.275.882,7.482,2.933,9.533S2.919-38.715,7.2-38.819a.544.544,0,0,1,.558.531v.013a.544.544,0,0,1-.531.544c-8.635.212-12.935,4.512-13.146,13.147a.544.544,0,0,1-.544.531" transform="translate(20.036 51.842)" fill="#003cff"/></g><g transform="translate(0 83.585)"><path d="M-10.126-18.448a5.029,5.029,0,0,1,1.81,1.143A5.027,5.027,0,0,1-7.173-15.5a5.572,5.572,0,0,1,3.112-3.112,5.027,5.027,0,0,1-1.81-1.143,5.019,5.019,0,0,1-1.143-1.81,5.573,5.573,0,0,1-3.112,3.112m2.879,6.74h-.014a.545.545,0,0,1-.531-.544s0-.01,0-.014a5.647,5.647,0,0,0-1.294-4.27,5.632,5.632,0,0,0-4.27-1.294.543.543,0,0,1-.558-.531v-.013a.544.544,0,0,1,.531-.544c3.874-.095,5.8-2.024,5.9-5.9a.54.54,0,0,1,.557-.531A.545.545,0,0,1-6.4-24.8v.014A5.647,5.647,0,0,0-5.1-20.52a5.638,5.638,0,0,0,4.27,1.294.544.544,0,0,1,.557.531s0,.009,0,.013a.544.544,0,0,1-.531.544c-3.874.095-5.8,2.024-5.9,5.9a.544.544,0,0,1-.544.531" transform="translate(13.913 25.347)" fill="#003cff"/></g><g transform="translate(31.356 0)"><path d="M-8.171-11.835a3.316,3.316,0,0,1,1.37,1.37,3.315,3.315,0,0,1,1.37-1.37,3.316,3.316,0,0,1-1.37-1.37,3.316,3.316,0,0,1-1.37,1.37M-6.8-7.409a.544.544,0,0,1-.544-.544c0-2.277-1.06-3.337-3.338-3.337a.545.545,0,0,1-.544-.544.545.545,0,0,1,.544-.544c2.277,0,3.338-1.06,3.338-3.337a.544.544,0,0,1,.544-.544.545.545,0,0,1,.544.544c0,2.277,1.06,3.337,3.337,3.337a.544.544,0,0,1,.544.544.544.544,0,0,1-.544.544c-2.277,0-3.337,1.06-3.337,3.337a.544.544,0,0,1-.544.544" transform="translate(11.227 16.261)" fill="#003cff"/></g></g></g></svg>