<svg id="Thumbs_Up" xmlns="http://www.w3.org/2000/svg" viewBox="0 0 59.97 59.97">
  <defs>
    <style>.cls-1{fill:none;stroke:#0000f0;stroke-linecap:round;stroke-linejoin:round;stroke-width:2px;}</style>
  </defs>
  <path class="cls-1" d="M35,58.55A29,29,0,1,0,30,59" transform="translate(-0.02 -0.02)"/>
  <line class="cls-1" x1="38.84" y1="28.63" x2="40.08" y2="28.63"/>
  <line class="cls-1" x1="40.27" y1="33.3" x2="40.85" y2="33.3"/>
  <path class="cls-1" d="M11.44,26.24l10.76.09s7.9-4.91,10.07-6.15a11.59,11.59,0,0,0,4.87-5.74c.67-1.55,1.27-1.7,2.48-1.16,1.57.71,1.16,2.27,1.16,4.64,0,1.11-1.19,2.49-2.13,3.55" transform="translate(-0.02 -0.02)"/>
  <path class="cls-1" d="M32,24H45.73a2.07,2.07,0,0,1,2.36,2.33,2.07,2.07,0,0,1-2.36,2.33H44.07A2.07,2.07,0,0,1,46.43,31a2.07,2.07,0,0,1-2.36,2.33h-.7a2.07,2.07,0,0,1,2.36,2.34A2.07,2.07,0,0,1,43.37,38H42a2.24,2.24,0,0,1,2.36,2.33c-.09,1.32-.57,2.34-2.36,2.34H28.93c-5.09,0-6-3-6-3H11.44" transform="translate(-0.02 -0.02)"/>
</svg>
